<svg width="21" height="21" viewBox="0 0 21 21" fill="none" xmlns="http://www.w3.org/2000/svg">
<g clip-path="url(#clip0_34_1252)">
<path d="M15.375 7.08334C15.375 5.72411 14.835 4.42055 13.8739 3.45942C12.9128 2.4983 11.6092 1.95834 10.25 1.95834C8.89077 1.95834 7.5872 2.4983 6.62608 3.45942C5.66495 4.42055 5.125 5.72411 5.125 7.08334C5.125 13.0625 2.5625 14.7708 2.5625 14.7708H17.9375C17.9375 14.7708 15.375 13.0625 15.375 7.08334Z" stroke="white" stroke-width="2" stroke-linecap="round" stroke-linejoin="round"/>
<path d="M11.7279 18.1875C11.5777 18.4464 11.3622 18.6613 11.1028 18.8106C10.8435 18.96 10.5495 19.0386 10.2502 19.0386C9.95089 19.0386 9.65686 18.96 9.39752 18.8106C9.13818 18.6613 8.92263 18.4464 8.77246 18.1875" stroke="white" stroke-width="2" stroke-linecap="round" stroke-linejoin="round"/>
</g>
<defs>
<clipPath id="clip0_34_1252">
<rect width="20.5" height="20.5" fill="white" transform="translate(0 0.25)"/>
</clipPath>
</defs>
</svg>
