<svg width="22" height="23" viewBox="0 0 22 23" fill="none" xmlns="http://www.w3.org/2000/svg">
<path d="M20.1667 3.5H14.6667C13.6942 3.5 12.7616 3.88631 12.0739 4.57394C11.3863 5.26158 11 6.19421 11 7.16667V20C11 19.2707 11.2897 18.5712 11.8055 18.0555C12.3212 17.5397 13.0207 17.25 13.75 17.25H20.1667V3.5Z" stroke="white" stroke-width="2" stroke-linecap="round" stroke-linejoin="round"/>
<path d="M1.8335 3.5H7.3335C8.30596 3.5 9.23859 3.88631 9.92622 4.57394C10.6139 5.26158 11.0002 6.19421 11.0002 7.16667V20C11.0002 19.2707 10.7104 18.5712 10.1947 18.0555C9.67898 17.5397 8.97951 17.25 8.25016 17.25H1.8335V3.5Z" stroke="white" stroke-width="2" stroke-linecap="round" stroke-linejoin="round"/>
</svg>
