<svg width="21" height="21" viewBox="0 0 21 21" fill="none" xmlns="http://www.w3.org/2000/svg">
<path d="M2.79312 6.445L10.25 10.7585L17.7069 6.445M10.25 19.36V10.75M17.9375 14.1667V7.33333C17.9372 7.03375 17.8581 6.73952 17.7082 6.48016C17.5583 6.22079 17.3428 6.00541 17.0833 5.85562L11.1042 2.43896C10.8445 2.28902 10.5499 2.21008 10.25 2.21008C9.95012 2.21008 9.65553 2.28902 9.39583 2.43896L3.41667 5.85562C3.15722 6.00541 2.94173 6.22079 2.79181 6.48016C2.64189 6.73952 2.56281 7.03375 2.5625 7.33333V14.1667C2.56281 14.4662 2.64189 14.7605 2.79181 15.0198C2.94173 15.2792 3.15722 15.4946 3.41667 15.6444L9.39583 19.061C9.65553 19.211 9.95012 19.2899 10.25 19.2899C10.5499 19.2899 10.8445 19.211 11.1042 19.061L17.0833 15.6444C17.3428 15.4946 17.5583 15.2792 17.7082 15.0198C17.8581 14.7605 17.9372 14.4662 17.9375 14.1667Z" stroke="white" stroke-width="2" stroke-linecap="round" stroke-linejoin="round"/>
</svg>
