<svg width="21" height="21" viewBox="0 0 21 21" fill="none" xmlns="http://www.w3.org/2000/svg">
<path d="M11.5417 1.49994H4.70833C4.25526 1.49994 3.82073 1.67992 3.50036 2.0003C3.17998 2.32067 3 2.75519 3 3.20827V16.8749C3 17.328 3.17998 17.7625 3.50036 18.0829C3.82073 18.4033 4.25526 18.5833 4.70833 18.5833H14.9583C15.4114 18.5833 15.8459 18.4033 16.1663 18.0829C16.4867 17.7625 16.6667 17.328 16.6667 16.8749V6.62494M11.5417 1.49994L16.6667 6.62494M11.5417 1.49994L11.5417 6.62494H16.6667M13.25 10.8958H6.41667M13.25 14.3124H6.41667M8.125 7.47911H6.41667" stroke="white" stroke-width="2" stroke-linecap="round" stroke-linejoin="round"/>
</svg>
