<svg width="20" height="21" viewBox="0 0 20 21" fill="none" xmlns="http://www.w3.org/2000/svg">
<path d="M9.99984 11.3333C10.4601 11.3333 10.8332 10.9602 10.8332 10.5C10.8332 10.0398 10.4601 9.66666 9.99984 9.66666C9.5396 9.66666 9.1665 10.0398 9.1665 10.5C9.1665 10.9602 9.5396 11.3333 9.99984 11.3333Z" fill="white" stroke="white" stroke-width="2" stroke-linecap="round" stroke-linejoin="round"/>
<path d="M9.99984 5.50001C10.4601 5.50001 10.8332 5.12691 10.8332 4.66668C10.8332 4.20644 10.4601 3.83334 9.99984 3.83334C9.5396 3.83334 9.1665 4.20644 9.1665 4.66668C9.1665 5.12691 9.5396 5.50001 9.99984 5.50001Z" fill="white" stroke="white" stroke-width="2" stroke-linecap="round" stroke-linejoin="round"/>
<path d="M9.99984 17.1667C10.4601 17.1667 10.8332 16.7936 10.8332 16.3333C10.8332 15.8731 10.4601 15.5 9.99984 15.5C9.5396 15.5 9.1665 15.8731 9.1665 16.3333C9.1665 16.7936 9.5396 17.1667 9.99984 17.1667Z" fill="white" stroke="white" stroke-width="2" stroke-linecap="round" stroke-linejoin="round"/>
</svg>
