<svg width="24" height="25" viewBox="0 0 24 25" fill="none" xmlns="http://www.w3.org/2000/svg">
<g clip-path="url(#clip0_34_1242)">
<path d="M19.5 17.25H9.19456C8.38525 17.25 7.9806 17.25 7.70084 17.013C7.42107 16.7759 7.35462 16.3768 7.22171 15.5784L5.77829 6.90855C5.64538 6.11023 5.57893 5.71107 5.29916 5.47403C5.0194 5.237 4.61475 5.237 3.80544 5.237H3M5.85715 7.24999L17.1648 7.24314C18.8691 7.24211 19.7213 7.2416 20.2672 7.67345C20.4995 7.85722 20.6881 8.09029 20.8194 8.35584C21.1278 8.97986 20.9495 9.81314 20.5928 11.4797V11.4797C20.3503 12.6129 20.2291 13.1795 19.8837 13.5717C19.7346 13.7411 19.5579 13.884 19.3611 13.9944C18.9053 14.25 18.3259 14.25 17.167 14.25H7.00054" stroke="white" stroke-width="2" stroke-linecap="round" stroke-linejoin="round"/>
<path d="M20 20.75C20 21.5784 19.3284 22.25 18.5 22.25C17.6716 22.25 17 21.5784 17 20.75C17 19.9216 17.6716 19.25 18.5 19.25C19.3284 19.25 20 19.9216 20 20.75Z" fill="white"/>
<path d="M10.5 20.75C10.5 21.5784 9.82843 22.25 9 22.25C8.17157 22.25 7.5 21.5784 7.5 20.75C7.5 19.9216 8.17157 19.25 9 19.25C9.82843 19.25 10.5 19.9216 10.5 20.75Z" fill="white"/>
</g>
<defs>
<clipPath id="clip0_34_1242">
<rect width="24" height="24" fill="white" transform="translate(0 0.25)"/>
</clipPath>
</defs>
</svg>
