<svg width="43" height="27" viewBox="0 0 43 27" fill="none" xmlns="http://www.w3.org/2000/svg">
<path d="M34.2679 26.3897H8.7341C-1.47698 26.1813 -2.92185 11.7632 7.04498 9.56638C6.61039 0.915778 18.1422 -2.71377 22.717 4.64785C25.0447 3.32701 27.8386 3.10685 30.3444 4.04713C32.8503 4.98738 34.8098 6.99135 35.6941 9.5174C45.8906 11.4551 44.6285 26.1629 34.268 26.3901L34.2679 26.3897ZM15.5404 2.07118C13.5424 2.06866 11.6367 2.91223 10.2956 4.39356C8.95459 5.87449 8.30331 7.85453 8.50391 9.84241C8.5835 10.0559 8.56329 10.2934 8.44927 10.4905C8.33494 10.6873 8.13848 10.8228 7.91361 10.8594C5.50787 11.1538 3.41957 12.6574 2.37792 14.8459C1.33596 17.034 1.48537 19.6034 2.77367 21.6563C4.062 23.7089 6.31039 24.9609 8.73416 24.9745H34.2679C36.7062 24.9817 38.9767 23.7335 40.2774 21.6712C41.578 19.6087 41.7261 17.022 40.6687 14.8247C39.6116 12.6274 37.4983 11.1288 35.0748 10.8581C34.7928 10.8256 34.5572 10.6275 34.4773 10.355C33.803 8.00641 32.0374 6.12687 29.7353 5.30692C27.4332 4.4873 24.8771 4.82811 22.8703 6.22219C22.7026 6.33811 22.4929 6.376 22.2952 6.32642C22.0975 6.27652 21.9307 6.14387 21.8382 5.96226C21.2514 4.79432 20.3518 3.81235 19.2401 3.12541C18.1283 2.43815 16.8477 2.07337 15.5404 2.07118ZM23.9169 22.0842H19.0849C18.8973 22.0845 18.7173 22.01 18.5846 21.8774C18.452 21.7444 18.3774 21.5647 18.3774 21.3768V18.9599C18.385 18.5746 18.6996 18.2661 19.0849 18.2661C19.4705 18.2661 19.7851 18.5746 19.7924 18.9599V20.6693H23.2094V18.9599H23.2098C23.217 18.5746 23.5316 18.2661 23.9172 18.2661C24.3026 18.2661 24.6174 18.5746 24.6247 18.9599V21.3768C24.6247 21.5647 24.5502 21.7447 24.4175 21.8774C24.2849 22.01 24.1048 22.0845 23.9172 22.0842H23.9169ZM21.5011 19.6677C21.3135 19.6677 21.1334 19.5932 21.0008 19.4606C20.8681 19.3279 20.7936 19.1479 20.7936 18.9603V12.2124L19.5818 13.4243C18.9438 14.0825 17.9217 13.0636 18.5815 12.4237L21.0008 10.0044V10.004C21.1335 9.8714 21.3135 9.79686 21.5011 9.79686C21.6887 9.79686 21.8687 9.8714 22.0014 10.004L24.421 12.4237C25.0783 13.0626 24.061 14.0831 23.4205 13.4239L22.2086 12.2121V18.96C22.2086 19.1479 22.1344 19.3279 22.0014 19.4606C21.8688 19.5932 21.6888 19.6677 21.5012 19.6677L21.5011 19.6677Z" fill="#808080"/>
</svg>
